<svg width="811" height="230" viewBox="0 0 811 230" fill="none" xmlns="http://www.w3.org/2000/svg">
<path d="M128.391 47.4688H112.828L105.047 20.2344C105.047 13.7876 128.391 8.5625 128.391 8.5625C130.454 8.5625 132.434 9.38231 133.893 10.8416C135.352 12.3008 136.172 14.28 136.172 16.3438V39.6875C136.172 41.7512 135.352 43.7304 133.893 45.1897C132.434 46.6489 130.454 47.4688 128.391 47.4688Z" fill="#F9FBE7"/>
<path d="M89.4844 74.7031H48.9907L61.6158 106.264C62.4196 108.268 62.44 110.501 61.6731 112.519C60.9061 114.537 59.4079 116.193 57.4762 117.158C56.404 117.694 55.2313 118.001 54.0336 118.057C52.8358 118.114 51.6395 117.919 50.5215 117.486C49.4035 117.052 48.3886 116.39 47.542 115.54C46.6955 114.691 46.036 113.674 45.6059 112.555L32.0276 77.2554C31.263 75.2654 30.9866 73.1212 31.2215 71.0023C31.4564 68.8835 32.1958 66.8519 33.3777 65.0777C34.593 63.2541 36.2393 61.7583 38.1706 60.7227C40.102 59.6871 42.2589 59.1437 44.4504 59.1406H89.4844V74.7031Z" fill="#F9FBE7"/>
<path d="M38.9062 8.5625H31.125V16.3438H38.9062V8.5625Z" fill="#F9FBE7"/>
<path d="M85.5938 8.5625H46.6875V16.3438H85.5938V8.5625Z" fill="#F9FBE7"/>
<path d="M23.3438 28.0156H15.5625V35.7969H23.3438V28.0156Z" fill="#F9FBE7"/>
<path d="M70.0312 28.0156H31.125V35.7969H70.0312V28.0156Z" fill="#F9FBE7"/>
<path d="M7.78125 160.297H0V168.078H7.78125V160.297Z" fill="#F9FBE7"/>
<path d="M54.4688 160.297H15.5625V168.078H54.4688V160.297Z" fill="#F9FBE7"/>
<path d="M23.3438 136.953H15.5625V144.734H23.3438V136.953Z" fill="#F9FBE7"/>
<path d="M70.0312 136.953H31.125V144.734H70.0312V136.953Z" fill="#F9FBE7"/>
<path d="M124.5 41.3099H108.938V59.1406H124.5V41.3099Z" fill="#F9FBE7"/>
<path d="M102.499 28.1479L108.938 47.4688H112.828C113.86 47.4688 114.85 47.0588 115.579 46.3292C116.309 45.5996 116.719 44.61 116.719 43.5781V31.9063C116.719 29.8425 117.539 27.8633 118.998 26.4041C120.457 24.9448 122.436 24.125 124.5 24.125H136.172V8.5625H116.719C114.387 8.56169 112.084 9.08585 109.982 10.0961C107.88 11.1064 106.032 12.5768 104.576 14.3984C103.116 16.3379 102.162 18.6102 101.799 21.0105C101.436 23.4108 101.677 25.8637 102.499 28.1479Z" fill="#F9FBE7"/>
<path d="M143.953 86.375L143.759 86.5306L141.152 83.2625C140.719 82.7333 140.155 82.3274 139.516 82.0856C138.877 81.8438 138.185 81.7746 137.511 81.885C136.836 81.9955 136.203 82.2816 135.674 82.7147C135.145 83.1477 134.74 83.7124 134.499 84.3519L120.609 121.391H89.4844V78.5938C89.4844 77.5619 89.0745 76.5723 88.3448 75.8427C87.6152 75.113 86.6256 74.7031 85.5938 74.7031H66.1406V59.1406H136.386C138.743 59.1414 141.069 59.6776 143.189 60.7088C145.309 61.74 147.166 63.2392 148.622 65.0933L157.415 76.2983L143.953 86.375Z" fill="#F9FBE7"/>
<path d="M196.165 60.6191C197.157 61.0633 198.045 61.7111 198.771 62.5204C199.496 63.3297 200.044 64.2824 200.377 65.3169C200.711 66.3513 200.824 67.4443 200.708 68.5251C200.592 69.6059 200.251 70.6503 199.706 71.5906L181.031 103.844C179.495 106.504 177.089 108.552 174.219 109.644C171.348 110.735 168.189 110.803 165.274 109.835C162.743 108.964 160.524 107.368 158.893 105.245L143.759 86.5306L143.953 86.375L157.415 76.2983L169.865 92.1331L186.011 64.1984C186.967 62.457 188.531 61.1291 190.404 60.4687C192.278 59.8083 194.329 59.8619 196.165 60.6191Z" fill="#F9FBE7"/>
<path d="M152.567 220.882C152.346 221.322 151.959 221.657 151.491 221.812C151.024 221.967 150.514 221.931 150.073 221.71L123.889 208.622C123.001 208.179 122.316 207.412 121.975 206.48C121.633 205.547 121.661 204.52 122.053 203.607L127.5 190.912L145.63 200.012C149.315 201.862 152.115 205.099 153.416 209.012C154.717 212.925 154.411 217.194 152.567 220.882Z" fill="#F9FBE7"/>
<path d="M67.3078 229.332C66.995 229.593 66.5925 229.72 66.1866 229.688C65.7807 229.655 65.4039 229.464 65.1368 229.157L46.9988 207.906C46.3423 207.138 46.0105 206.144 46.0737 205.136C46.1368 204.127 46.59 203.183 47.3372 202.502L57.3478 193.406L69.1481 207.486C71.7857 210.634 73.0723 214.696 72.7276 218.788C72.3829 222.88 70.4348 226.67 67.3078 229.332Z" fill="#F9FBE7"/>
<path d="M160.722 141.466C162.495 142.349 163.864 143.875 164.551 145.733C165.238 147.591 165.19 149.641 164.418 151.465L143.953 199.203L127.496 190.916L142.436 156.095C142.837 155.146 142.846 154.076 142.459 153.12C142.073 152.164 141.323 151.401 140.374 150.998L132.826 147.73L142.163 132.168L160.722 141.466Z" fill="#F9FBE7"/>
<path d="M108.938 152.516V168.623C108.939 169.715 108.711 170.795 108.268 171.794C107.826 172.792 107.179 173.687 106.37 174.42L69.2998 207.665L57.3478 193.406L89.4844 164.188V152.516H108.938Z" fill="#F9FBE7"/>
<path d="M142.163 132.168L132.826 147.73L117.925 141.35C117.121 141.025 116.263 140.854 115.396 140.844H112.828C111.796 140.844 110.807 141.254 110.077 141.983C109.347 142.713 108.938 143.703 108.938 144.734V152.516H89.4844V121.391H120.609L142.163 132.168Z" fill="#F9FBE7"/>
<path d="M221.766 97.7701V4.50826H257.2C264.46 4.50826 270.55 5.75297 275.472 8.24238C280.424 10.7318 284.161 14.223 286.683 18.7161C289.236 23.1788 290.513 28.3854 290.513 34.3357C290.513 40.3163 289.221 45.5077 286.637 49.9097C284.084 54.2813 280.316 57.6663 275.333 60.0646C270.35 62.4326 264.229 63.6166 256.97 63.6166H231.732V49.5909H254.663C258.908 49.5909 262.383 49.0141 265.09 47.8604C267.797 46.6765 269.796 44.9612 271.088 42.7147C272.411 40.4378 273.072 37.6448 273.072 34.3357C273.072 31.0266 272.411 28.2032 271.088 25.8656C269.766 23.4976 267.751 21.7064 265.044 20.4921C262.337 19.2474 258.846 18.625 254.571 18.625H238.883V97.7701H221.766ZM270.581 55.5108L293.973 97.7701H274.872L251.894 55.5108H270.581Z" fill="#F9FBE7"/>
<path d="M350.701 68.3525V27.8237H367.404V97.7701H351.209V85.3382H350.471C348.871 89.2545 346.241 92.4573 342.581 94.9467C338.951 97.4362 334.476 98.6809 329.154 98.6809C324.51 98.6809 320.403 97.6639 316.835 95.6298C313.298 93.5654 310.53 90.5751 308.53 86.6588C306.531 82.7122 305.531 77.9459 305.531 72.3599V27.8237H322.233V69.8098C322.233 74.2421 323.464 77.7637 325.925 80.3746C328.385 82.9854 331.615 84.2909 335.614 84.2909C338.075 84.2909 340.458 83.6989 342.765 82.5149C345.072 81.3309 346.964 79.5701 348.44 77.2325C349.948 74.8645 350.701 71.9045 350.701 68.3525Z" fill="#F9FBE7"/>
<path d="M401.281 56.7859V97.7701H384.579V27.8237H400.543V39.7091H401.374C403.004 35.7929 405.603 32.6811 409.171 30.3739C412.77 28.0666 417.215 26.913 422.505 26.913C427.396 26.913 431.656 27.9452 435.286 30.0095C438.946 32.0739 441.776 35.0643 443.775 38.9805C445.805 42.8968 446.805 47.6479 446.774 53.2339V97.7701H430.072V55.7841C430.072 51.1088 428.842 47.4506 426.381 44.8094C423.951 42.1682 420.583 40.8476 416.276 40.8476C413.354 40.8476 410.755 41.4851 408.479 42.7602C406.234 44.0049 404.465 45.8112 403.173 48.1792C401.912 50.5472 401.281 53.4161 401.281 56.7859Z" fill="#F9FBE7"/>
<path d="M494.275 33.6526V24.3628C494.275 21.6913 494.782 18.9135 495.797 16.0294C496.843 13.1149 498.258 10.3675 500.042 7.787C501.857 5.17616 503.887 2.97515 506.132 1.18399L513.884 6.14763C512.069 8.84955 510.546 11.6729 509.316 14.6177C508.116 17.5321 507.532 20.7502 507.563 24.2718V33.6526H494.275Z" fill="#F9FBE7"/>
<path d="M542.248 56.7859V97.7701H525.545V27.8237H541.509V39.7091H542.34C543.97 35.7929 546.569 32.6811 550.137 30.3739C553.736 28.0666 558.181 26.913 563.472 26.913C568.362 26.913 572.623 27.9452 576.252 30.0095C579.913 32.0739 582.742 35.0643 584.742 38.9805C586.772 42.8968 587.772 47.6479 587.741 53.2339V97.7701H571.038V55.7841C571.038 51.1088 569.808 47.4506 567.347 44.8094C564.917 42.1682 561.549 40.8476 557.243 40.8476C554.321 40.8476 551.722 41.4851 549.445 42.7602C547.2 44.0049 545.431 45.8112 544.139 48.1792C542.878 50.5472 542.248 53.4161 542.248 56.7859Z" fill="#F9FBE7"/>
<path d="M636.948 27.8237H653.651V101.777C653.651 106.817 652.682 110.976 650.744 114.255C648.806 117.534 646.007 119.977 642.346 121.586C638.686 123.195 634.241 124 629.012 124C628.397 124 627.828 123.985 627.305 123.954C626.782 123.954 626.213 123.939 625.598 123.909V110.475C626.059 110.506 626.475 110.521 626.844 110.521C627.213 110.551 627.597 110.566 627.997 110.566C631.196 110.566 633.488 109.792 634.872 108.244C636.256 106.726 636.948 104.495 636.948 101.55V27.8237ZM645.253 17.8964C642.577 17.8964 640.286 17.0312 638.378 15.3008C636.502 13.54 635.564 11.43 635.564 8.97099C635.564 6.48158 636.502 4.37165 638.378 2.6412C640.286 0.8804 642.577 0 645.253 0C647.899 0 650.159 0.8804 652.036 2.6412C653.943 4.37165 654.896 6.48158 654.896 8.97099C654.896 11.43 653.943 13.54 652.036 15.3008C650.159 17.0312 647.899 17.8964 645.253 17.8964Z" fill="#F9FBE7"/>
<path d="M701.739 99.1363C694.818 99.1363 688.82 97.6335 683.745 94.628C678.669 91.6225 674.732 87.4178 671.933 82.014C669.165 76.6101 667.781 70.2955 667.781 63.0701C667.781 55.8448 669.165 49.515 671.933 44.0808C674.732 38.6466 678.669 34.4267 683.745 31.4212C688.82 28.4157 694.818 26.913 701.739 26.913C708.66 26.913 714.658 28.4157 719.733 31.4212C724.809 34.4267 728.73 38.6466 731.499 44.0808C734.298 49.515 735.697 55.8448 735.697 63.0701C735.697 70.2955 734.298 76.6101 731.499 82.014C728.73 87.4178 724.809 91.6225 719.733 94.628C714.658 97.6335 708.66 99.1363 701.739 99.1363ZM701.831 85.9302C705.584 85.9302 708.721 84.9132 711.244 82.8792C713.766 80.8148 715.642 78.0521 716.873 74.5913C718.134 71.1304 718.764 67.2748 718.764 63.0246C718.764 58.744 718.134 54.8733 716.873 51.4124C715.642 47.9212 713.766 45.1433 711.244 43.079C708.721 41.0146 705.584 39.9824 701.831 39.9824C697.986 39.9824 694.787 41.0146 692.234 43.079C689.712 45.1433 687.82 47.9212 686.559 51.4124C685.329 54.8733 684.714 58.744 684.714 63.0246C684.714 67.2748 685.329 71.1304 686.559 74.5913C687.82 78.0521 689.712 80.8148 692.234 82.8792C694.787 84.9132 697.986 85.9302 701.831 85.9302Z" fill="#F9FBE7"/>
<path d="M757.844 124C755.568 124 753.461 123.818 751.523 123.454C749.616 123.12 748.093 122.725 746.955 122.27L750.831 109.428C753.261 110.126 755.429 110.46 757.337 110.43C759.244 110.399 760.92 109.807 762.366 108.654C763.842 107.53 765.088 105.648 766.103 103.007L767.533 99.2273L741.834 27.8237H759.551L775.884 80.6478H776.623L793.002 27.8237H810.766L782.39 106.24C781.067 109.944 779.314 113.116 777.13 115.758C774.946 118.429 772.27 120.463 769.102 121.86C765.965 123.287 762.212 124 757.844 124Z" fill="#F9FBE7"/>
<path d="M222 196.545V150H224.841V193.909H247.568V196.545H222Z" fill="#F9FBE7"/>
<path d="M270.636 197.273C267.485 197.273 264.742 196.492 262.409 194.932C260.076 193.371 258.273 191.235 257 188.523C255.727 185.811 255.091 182.72 255.091 179.25C255.091 175.765 255.727 172.659 257 169.932C258.288 167.205 260.053 165.053 262.295 163.477C264.538 161.902 267.098 161.114 269.977 161.114C271.932 161.114 273.78 161.508 275.523 162.295C277.28 163.068 278.826 164.189 280.159 165.659C281.508 167.129 282.561 168.902 283.318 170.977C284.091 173.053 284.477 175.386 284.477 177.977V179.705H256.841V177.182H281.705C281.705 174.652 281.189 172.371 280.159 170.341C279.129 168.311 277.727 166.697 275.955 165.5C274.182 164.303 272.189 163.705 269.977 163.705C267.659 163.705 265.591 164.356 263.773 165.659C261.97 166.947 260.538 168.689 259.477 170.886C258.432 173.083 257.886 175.538 257.841 178.25V179.386C257.841 182.295 258.348 184.909 259.364 187.227C260.394 189.53 261.864 191.356 263.773 192.705C265.682 194.038 267.97 194.705 270.636 194.705C272.545 194.705 274.174 194.386 275.523 193.75C276.886 193.098 278 192.311 278.864 191.386C279.727 190.462 280.379 189.568 280.818 188.705L283.341 189.727C282.811 190.894 281.985 192.061 280.864 193.227C279.758 194.379 278.348 195.341 276.636 196.114C274.939 196.886 272.939 197.273 270.636 197.273Z" fill="#F9FBE7"/>
<path d="M306.364 161.636V164.114H291.114V161.636H306.364ZM296.273 153.273H299.023V188.295C299.023 189.72 299.295 190.886 299.841 191.795C300.402 192.689 301.129 193.356 302.023 193.795C302.932 194.22 303.902 194.432 304.932 194.432C305.432 194.432 305.864 194.394 306.227 194.318C306.606 194.242 306.962 194.144 307.295 194.023L307.977 196.545C307.553 196.697 307.083 196.826 306.568 196.932C306.053 197.053 305.447 197.114 304.75 197.114C303.295 197.114 301.917 196.788 300.614 196.136C299.326 195.485 298.28 194.538 297.477 193.295C296.674 192.053 296.273 190.553 296.273 188.795V153.273Z" fill="#F9FBE7"/>
<path d="M320.517 150V154.091C320.517 155.333 320.29 156.659 319.835 158.068C319.396 159.462 318.744 160.818 317.881 162.136C317.032 163.439 316.002 164.576 314.79 165.545L313.267 164.023C314.6 162.75 315.691 161.227 316.54 159.455C317.403 157.667 317.835 155.886 317.835 154.114V150H320.517Z" fill="#F9FBE7"/>
<path d="M346.017 169.159L343.449 169.841C343.04 168.568 342.456 167.47 341.699 166.545C340.941 165.621 339.987 164.909 338.835 164.409C337.699 163.894 336.335 163.636 334.744 163.636C332.184 163.636 330.085 164.273 328.449 165.545C326.828 166.818 326.017 168.477 326.017 170.523C326.017 172.189 326.57 173.568 327.676 174.659C328.782 175.735 330.472 176.553 332.744 177.114L338.108 178.455C340.866 179.136 342.941 180.242 344.335 181.773C345.729 183.288 346.426 185.174 346.426 187.432C346.426 189.356 345.903 191.061 344.858 192.545C343.813 194.03 342.366 195.189 340.517 196.023C338.684 196.856 336.547 197.273 334.108 197.273C330.85 197.273 328.176 196.515 326.085 195C323.994 193.47 322.653 191.28 322.062 188.432L324.722 187.75C325.222 190.023 326.259 191.758 327.835 192.955C329.426 194.136 331.509 194.727 334.085 194.727C336.934 194.727 339.229 194.053 340.972 192.705C342.729 191.356 343.608 189.629 343.608 187.523C343.608 185.917 343.093 184.561 342.062 183.455C341.032 182.348 339.472 181.538 337.381 181.023L331.812 179.659C328.964 178.962 326.828 177.848 325.403 176.318C323.979 174.773 323.267 172.871 323.267 170.614C323.267 168.735 323.759 167.083 324.744 165.659C325.729 164.235 327.085 163.121 328.812 162.318C330.54 161.515 332.517 161.114 334.744 161.114C337.699 161.114 340.108 161.811 341.972 163.205C343.835 164.598 345.184 166.583 346.017 169.159Z" fill="#F9FBE7"/>
<path d="M374.023 196.545V161.636H376.727V167.091H376.977C377.735 165.303 379.015 163.871 380.818 162.795C382.621 161.705 384.674 161.159 386.977 161.159C387.22 161.159 387.462 161.159 387.705 161.159C387.947 161.159 388.174 161.167 388.386 161.182V163.977C388.205 163.962 387.985 163.939 387.727 163.909C387.485 163.864 387.182 163.841 386.818 163.841C384.879 163.841 383.152 164.258 381.636 165.091C380.136 165.924 378.955 167.076 378.091 168.545C377.227 170 376.795 171.667 376.795 173.545V196.545H374.023Z" fill="#F9FBE7"/>
<path d="M418.199 184.159V161.636H420.972V196.545H418.199V190.886H417.972C417.153 192.689 415.828 194.159 413.994 195.295C412.176 196.432 410.025 197 407.54 197C405.252 197 403.229 196.5 401.472 195.5C399.714 194.5 398.335 193.083 397.335 191.25C396.335 189.402 395.835 187.205 395.835 184.659V161.636H398.608V184.545C398.608 187.455 399.487 189.811 401.244 191.614C403.017 193.402 405.305 194.295 408.108 194.295C409.926 194.295 411.6 193.886 413.131 193.068C414.661 192.25 415.888 191.083 416.812 189.568C417.737 188.038 418.199 186.235 418.199 184.159Z" fill="#F9FBE7"/>
<path d="M435.233 173.909V196.545H432.46V161.636H435.165V167.159H435.438C436.256 165.356 437.566 163.909 439.369 162.818C441.172 161.727 443.316 161.182 445.801 161.182C448.15 161.182 450.21 161.682 451.983 162.682C453.771 163.682 455.165 165.106 456.165 166.955C457.18 168.788 457.688 170.977 457.688 173.523V196.545H454.915V173.636C454.915 170.667 454.028 168.28 452.256 166.477C450.498 164.659 448.172 163.75 445.278 163.75C443.339 163.75 441.612 164.174 440.097 165.023C438.581 165.871 437.392 167.061 436.528 168.591C435.665 170.106 435.233 171.879 435.233 173.909Z" fill="#F9FBE7"/>
<path d="M499.551 161.636V164.114H484.301V161.636H499.551ZM489.46 153.273H492.21V188.295C492.21 189.72 492.483 190.886 493.028 191.795C493.589 192.689 494.316 193.356 495.21 193.795C496.119 194.22 497.089 194.432 498.119 194.432C498.619 194.432 499.051 194.394 499.415 194.318C499.794 194.242 500.15 194.144 500.483 194.023L501.165 196.545C500.741 196.697 500.271 196.826 499.756 196.932C499.241 197.053 498.634 197.114 497.938 197.114C496.483 197.114 495.104 196.788 493.801 196.136C492.513 195.485 491.468 194.538 490.665 193.295C489.862 192.053 489.46 190.553 489.46 188.795V153.273Z" fill="#F9FBE7"/>
<path d="M522.438 197.273C519.559 197.273 516.998 196.5 514.756 194.955C512.513 193.394 510.748 191.25 509.46 188.523C508.172 185.795 507.528 182.689 507.528 179.205C507.528 175.705 508.172 172.598 509.46 169.886C510.748 167.159 512.513 165.015 514.756 163.455C516.998 161.894 519.559 161.114 522.438 161.114C525.316 161.114 527.877 161.894 530.119 163.455C532.362 165.015 534.127 167.159 535.415 169.886C536.703 172.614 537.347 175.72 537.347 179.205C537.347 182.689 536.703 185.795 535.415 188.523C534.127 191.25 532.362 193.394 530.119 194.955C527.877 196.5 525.316 197.273 522.438 197.273ZM522.438 194.705C524.877 194.705 527.006 194.015 528.824 192.636C530.657 191.258 532.074 189.394 533.074 187.045C534.089 184.697 534.597 182.083 534.597 179.205C534.597 176.326 534.089 173.72 533.074 171.386C532.059 169.038 530.642 167.174 528.824 165.795C527.006 164.402 524.877 163.705 522.438 163.705C519.998 163.705 517.869 164.402 516.051 165.795C514.233 167.174 512.816 169.038 511.801 171.386C510.786 173.72 510.278 176.326 510.278 179.205C510.278 182.083 510.778 184.697 511.778 187.045C512.794 189.394 514.21 191.258 516.028 192.636C517.862 194.015 519.998 194.705 522.438 194.705Z" fill="#F9FBE7"/>
<path d="M559.489 210.364C557.322 210.364 555.375 210.076 553.648 209.5C551.92 208.939 550.451 208.136 549.239 207.091C548.042 206.045 547.125 204.803 546.489 203.364L548.807 202C549.322 203.121 550.057 204.121 551.011 205C551.966 205.879 553.148 206.568 554.557 207.068C555.981 207.568 557.625 207.818 559.489 207.818C562.852 207.818 565.511 206.947 567.466 205.205C569.436 203.477 570.42 200.826 570.42 197.25V188.568H570.148C569.617 190.083 568.83 191.432 567.784 192.614C566.754 193.78 565.489 194.697 563.989 195.364C562.489 196.03 560.784 196.364 558.875 196.364C556.117 196.364 553.693 195.652 551.602 194.227C549.511 192.803 547.883 190.803 546.716 188.227C545.549 185.636 544.966 182.591 544.966 179.091C544.966 175.591 545.534 172.492 546.67 169.795C547.822 167.083 549.443 164.962 551.534 163.432C553.625 161.886 556.08 161.114 558.898 161.114C560.913 161.114 562.655 161.5 564.125 162.273C565.61 163.03 566.852 164.038 567.852 165.295C568.852 166.553 569.625 167.932 570.17 169.432H570.489V161.636H573.17V197.364C573.17 200.273 572.595 202.689 571.443 204.614C570.307 206.538 568.708 207.977 566.648 208.932C564.602 209.886 562.216 210.364 559.489 210.364ZM559.125 193.795C561.458 193.795 563.466 193.205 565.148 192.023C566.845 190.826 568.148 189.129 569.057 186.932C569.981 184.72 570.443 182.098 570.443 179.068C570.443 176.129 569.996 173.5 569.102 171.182C568.208 168.864 566.913 167.038 565.216 165.705C563.519 164.371 561.489 163.705 559.125 163.705C556.716 163.705 554.663 164.386 552.966 165.75C551.269 167.098 549.966 168.932 549.057 171.25C548.163 173.568 547.716 176.174 547.716 179.068C547.716 181.977 548.17 184.538 549.08 186.75C549.989 188.947 551.292 190.674 552.989 191.932C554.686 193.174 556.731 193.795 559.125 193.795Z" fill="#F9FBE7"/>
<path d="M598.449 197.273C595.297 197.273 592.555 196.492 590.222 194.932C587.888 193.371 586.085 191.235 584.812 188.523C583.54 185.811 582.903 182.72 582.903 179.25C582.903 175.765 583.54 172.659 584.812 169.932C586.1 167.205 587.866 165.053 590.108 163.477C592.35 161.902 594.911 161.114 597.79 161.114C599.744 161.114 601.593 161.508 603.335 162.295C605.093 163.068 606.638 164.189 607.972 165.659C609.32 167.129 610.373 168.902 611.131 170.977C611.903 173.053 612.29 175.386 612.29 177.977V179.705H584.653V177.182H609.517C609.517 174.652 609.002 172.371 607.972 170.341C606.941 168.311 605.54 166.697 603.767 165.5C601.994 164.303 600.002 163.705 597.79 163.705C595.472 163.705 593.403 164.356 591.585 165.659C589.782 166.947 588.35 168.689 587.29 170.886C586.244 173.083 585.699 175.538 585.653 178.25V179.386C585.653 182.295 586.161 184.909 587.176 187.227C588.206 189.53 589.676 191.356 591.585 192.705C593.494 194.038 595.782 194.705 598.449 194.705C600.358 194.705 601.987 194.386 603.335 193.75C604.699 193.098 605.813 192.311 606.676 191.386C607.54 190.462 608.191 189.568 608.631 188.705L611.153 189.727C610.623 190.894 609.797 192.061 608.676 193.227C607.57 194.379 606.161 195.341 604.449 196.114C602.752 196.886 600.752 197.273 598.449 197.273Z" fill="#F9FBE7"/>
<path d="M634.176 161.636V164.114H618.926V161.636H634.176ZM624.085 153.273H626.835V188.295C626.835 189.72 627.108 190.886 627.653 191.795C628.214 192.689 628.941 193.356 629.835 193.795C630.744 194.22 631.714 194.432 632.744 194.432C633.244 194.432 633.676 194.394 634.04 194.318C634.419 194.242 634.775 194.144 635.108 194.023L635.79 196.545C635.366 196.697 634.896 196.826 634.381 196.932C633.866 197.053 633.259 197.114 632.562 197.114C631.108 197.114 629.729 196.788 628.426 196.136C627.138 195.485 626.093 194.538 625.29 193.295C624.487 192.053 624.085 190.553 624.085 188.795V153.273Z" fill="#F9FBE7"/>
<path d="M647.983 173.909V196.545H645.21V150H647.983V167.159H648.256C649.074 165.341 650.377 163.894 652.165 162.818C653.968 161.727 656.127 161.182 658.642 161.182C660.991 161.182 663.059 161.682 664.847 162.682C666.634 163.667 668.028 165.083 669.028 166.932C670.044 168.765 670.551 170.962 670.551 173.523V196.545H667.801V173.636C667.801 170.652 666.915 168.258 665.142 166.455C663.369 164.652 661.028 163.75 658.119 163.75C656.165 163.75 654.422 164.174 652.892 165.023C651.362 165.871 650.157 167.061 649.278 168.591C648.415 170.106 647.983 171.879 647.983 173.909Z" fill="#F9FBE7"/>
<path d="M695.636 197.273C692.485 197.273 689.742 196.492 687.409 194.932C685.076 193.371 683.273 191.235 682 188.523C680.727 185.811 680.091 182.72 680.091 179.25C680.091 175.765 680.727 172.659 682 169.932C683.288 167.205 685.053 165.053 687.295 163.477C689.538 161.902 692.098 161.114 694.977 161.114C696.932 161.114 698.78 161.508 700.523 162.295C702.28 163.068 703.826 164.189 705.159 165.659C706.508 167.129 707.561 168.902 708.318 170.977C709.091 173.053 709.477 175.386 709.477 177.977V179.705H681.841V177.182H706.705C706.705 174.652 706.189 172.371 705.159 170.341C704.129 168.311 702.727 166.697 700.955 165.5C699.182 164.303 697.189 163.705 694.977 163.705C692.659 163.705 690.591 164.356 688.773 165.659C686.97 166.947 685.538 168.689 684.477 170.886C683.432 173.083 682.886 175.538 682.841 178.25V179.386C682.841 182.295 683.348 184.909 684.364 187.227C685.394 189.53 686.864 191.356 688.773 192.705C690.682 194.038 692.97 194.705 695.636 194.705C697.545 194.705 699.174 194.386 700.523 193.75C701.886 193.098 703 192.311 703.864 191.386C704.727 190.462 705.379 189.568 705.818 188.705L708.341 189.727C707.811 190.894 706.985 192.061 705.864 193.227C704.758 194.379 703.348 195.341 701.636 196.114C699.939 196.886 697.939 197.273 695.636 197.273Z" fill="#F9FBE7"/>
<path d="M719.023 196.545V161.636H721.727V167.091H721.977C722.735 165.303 724.015 163.871 725.818 162.795C727.621 161.705 729.674 161.159 731.977 161.159C732.22 161.159 732.462 161.159 732.705 161.159C732.947 161.159 733.174 161.167 733.386 161.182V163.977C733.205 163.962 732.985 163.939 732.727 163.909C732.485 163.864 732.182 163.841 731.818 163.841C729.879 163.841 728.152 164.258 726.636 165.091C725.136 165.924 723.955 167.076 723.091 168.545C722.227 170 721.795 171.667 721.795 173.545V196.545H719.023Z" fill="#F9FBE7"/>
</svg>
